<svg width="36" height="31" viewBox="0 0 36 31" fill="none" xmlns="http://www.w3.org/2000/svg">
<path d="M33.2308 7.44H26.3077C26.3077 5.46679 25.4324 3.5744 23.8744 2.17913C22.3164 0.783855 20.2033 0 18 0C15.7967 0 13.6836 0.783855 12.1256 2.17913C10.5676 3.5744 9.69231 5.46679 9.69231 7.44H2.76923C2.03479 7.44 1.33042 7.70129 0.811089 8.16638C0.291757 8.63147 0 9.26226 0 9.92V28.52C0 29.1777 0.291757 29.8085 0.811089 30.2736C1.33042 30.7387 2.03479 31 2.76923 31H33.2308C33.9652 31 34.6696 30.7387 35.1889 30.2736C35.7082 29.8085 36 29.1777 36 28.52V9.92C36 9.26226 35.7082 8.63147 35.1889 8.16638C34.6696 7.70129 33.9652 7.44 33.2308 7.44ZM18 2.48C19.4689 2.48 20.8776 3.00257 21.9163 3.93275C22.9549 4.86293 23.5385 6.12453 23.5385 7.44H12.4615C12.4615 6.12453 13.0451 4.86293 14.0837 3.93275C15.1224 3.00257 16.5311 2.48 18 2.48ZM33.2308 28.52H2.76923V9.92H9.69231V12.4C9.69231 12.7289 9.83819 13.0443 10.0979 13.2768C10.3575 13.5094 10.7097 13.64 11.0769 13.64C11.4441 13.64 11.7963 13.5094 12.056 13.2768C12.3157 13.0443 12.4615 12.7289 12.4615 12.4V9.92H23.5385V12.4C23.5385 12.7289 23.6843 13.0443 23.944 13.2768C24.2037 13.5094 24.5559 13.64 24.9231 13.64C25.2903 13.64 25.6425 13.5094 25.9021 13.2768C26.1618 13.0443 26.3077 12.7289 26.3077 12.4V9.92H33.2308V28.52Z" fill="black"/>
</svg>
