<svg width="36" height="31" viewBox="0 0 36 31" fill="none" xmlns="http://www.w3.org/2000/svg">
<path d="M33.272 2.75449C31.5255 1.00512 29.1601 0.0213551 26.6931 0.0183314C24.2262 0.0153076 21.8584 0.993267 20.1076 2.73836L18.0056 4.69888L15.9021 2.7319C14.1517 0.979221 11.7795 -0.0034708 9.30756 9.21144e-06C6.83558 0.00348923 4.46622 0.992856 2.72072 2.75046C0.975211 4.50806 -0.00345656 6.88993 9.17352e-06 9.37207C0.0034749 11.8542 0.98879 14.2333 2.7392 15.986L17.0977 30.6149C17.2173 30.7369 17.3599 30.8337 17.5171 30.8998C17.6744 30.966 17.8432 31 18.0136 31C18.1841 31 18.3529 30.966 18.5102 30.8998C18.6674 30.8337 18.81 30.7369 18.9296 30.6149L33.272 15.986C35.0188 14.231 36 11.8514 36 9.37025C36 6.88909 35.0188 4.50946 33.272 2.75449ZM31.4481 14.1723L18.0056 27.8621L4.5551 14.1594C3.28928 12.8884 2.57815 11.1645 2.57815 9.36702C2.57815 7.56953 3.28928 5.84565 4.5551 4.57463C5.82091 3.30361 7.53773 2.58956 9.32786 2.58956C11.118 2.58956 12.8348 3.30361 14.1006 4.57463L14.1328 4.60691L17.1298 7.4065C17.3677 7.6288 17.6806 7.75239 18.0056 7.75239C18.3306 7.75239 18.6435 7.6288 18.8814 7.4065L21.8785 4.60691L21.9106 4.57463C23.1773 3.30447 24.8946 2.59158 26.6847 2.59279C28.4748 2.594 30.1912 3.30921 31.4561 4.58109C32.7211 5.85296 33.4311 7.57732 33.4299 9.37481C33.4287 11.1723 32.7164 12.8957 31.4497 14.1659L31.4481 14.1723Z" fill="black"/>
</svg>
