<svg width="32" height="32" viewBox="0 0 32 32" fill="none" xmlns="http://www.w3.org/2000/svg">
<path d="M9.34996 0.166626H22.65C27.7166 0.166626 31.8333 4.28329 31.8333 9.34996V22.65C31.8333 25.0855 30.8658 27.4213 29.1436 29.1436C27.4213 30.8658 25.0855 31.8333 22.65 31.8333H9.34996C4.28329 31.8333 0.166626 27.7166 0.166626 22.65V9.34996C0.166626 6.91439 1.13415 4.57857 2.85636 2.85636C4.57857 1.13415 6.91439 0.166626 9.34996 0.166626ZM9.03329 3.33329C7.52156 3.33329 6.07174 3.93383 5.00278 5.00278C3.93383 6.07174 3.33329 7.52156 3.33329 9.03329V22.9666C3.33329 26.1175 5.88246 28.6666 9.03329 28.6666H22.9666C24.4784 28.6666 25.9282 28.0661 26.9971 26.9971C28.0661 25.9282 28.6666 24.4784 28.6666 22.9666V9.03329C28.6666 5.88246 26.1175 3.33329 22.9666 3.33329H9.03329ZM24.3125 5.70829C24.8374 5.70829 25.3408 5.91681 25.7119 6.28798C26.0831 6.65914 26.2916 7.16255 26.2916 7.68746C26.2916 8.21237 26.0831 8.71578 25.7119 9.08694C25.3408 9.45811 24.8374 9.66663 24.3125 9.66663C23.7876 9.66663 23.2841 9.45811 22.913 9.08694C22.5418 8.71578 22.3333 8.21237 22.3333 7.68746C22.3333 7.16255 22.5418 6.65914 22.913 6.28798C23.2841 5.91681 23.7876 5.70829 24.3125 5.70829ZM16 8.08329C18.0996 8.08329 20.1132 8.91737 21.5979 10.402C23.0825 11.8867 23.9166 13.9003 23.9166 16C23.9166 18.0996 23.0825 20.1132 21.5979 21.5979C20.1132 23.0825 18.0996 23.9166 16 23.9166C13.9003 23.9166 11.8867 23.0825 10.402 21.5979C8.91737 20.1132 8.08329 18.0996 8.08329 16C8.08329 13.9003 8.91737 11.8867 10.402 10.402C11.8867 8.91737 13.9003 8.08329 16 8.08329ZM16 11.25C14.7402 11.25 13.532 11.7504 12.6412 12.6412C11.7504 13.532 11.25 14.7402 11.25 16C11.25 17.2597 11.7504 18.4679 12.6412 19.3587C13.532 20.2495 14.7402 20.75 16 20.75C17.2597 20.75 18.4679 20.2495 19.3587 19.3587C20.2495 18.4679 20.75 17.2597 20.75 16C20.75 14.7402 20.2495 13.532 19.3587 12.6412C18.4679 11.7504 17.2597 11.25 16 11.25Z" fill="#B49A87"/>
</svg>
