<svg xmlns="http://www.w3.org/2000/svg" viewBox="0 0 640.63 822.3"><defs><style>.cls-1{fill:#b49a87;}</style></defs><title>Recurso 1</title><g id="Capa_2" data-name="Capa 2"><g id="Capa_1-2" data-name="Capa 1"><path class="cls-1" d="M301,822.3v-8.37q23.1,0,29.95-14.51t6.86-49.65V77q0-35.7-5.35-51.6t-32.13-17V0H432.5V8.37q-18.4,0-25.76,7.82A38.43,38.43,0,0,0,397,34.61q-2.35,10.62-2.35,48V659.85q0,74.25,21.39,104.67T489.26,795H549.4q43.44,0,63.66-35.73t22.55-134.54h5V822.3Z"/><path class="cls-1" d="M279.62,329.48l34.95,1L184.82,81.88S159.54,36.43,166.9,16.45c0,0,1.85-8,14.74-8,0,0,11.05-4-.92-8H162.3s-13.81,3-22.1,3h-12s-14.73-1-20.26-2L92.32.48H71.14s-13.82,3-1.85,8h11s17.5,1,34.08,27L135.6,68.38Z"/><path class="cls-1" d="M321.06,402.86,265.54,400,113.71,704.18s-48.59,83.59-64.2,95.25c0,0-11.28,14.58-40.78,15.56,0,0-9.54-1-8.67,2.91,0,0-.87,4.86,9.54,3.89H65.12s39.91,5.83,69.41-47.63l61.6-111.78Z"/><rect class="cls-1" x="246.17" y="346.98" width="265.64" height="36"/></g></g></svg>