<svg width="69" height="54" viewBox="0 0 69 54" fill="none" xmlns="http://www.w3.org/2000/svg">
<g clip-path="url(#clip0_6_50)">
<path d="M12.544 53.7316V50.1576C12.544 48.7872 11.7154 47.8939 10.2953 47.8939C9.58534 47.8939 8.8161 48.1322 8.2835 48.9066C7.8695 48.2513 7.27788 47.8939 6.39031 47.8939C5.79842 47.8939 5.20707 48.0725 4.73351 48.7278V48.013H3.49097V53.7316H4.73351V50.5744C4.73351 49.562 5.2661 49.0852 6.09464 49.0852C6.92264 49.0852 7.33718 49.6214 7.33718 50.5744V53.7316H8.57972V50.5744C8.57972 49.562 9.17107 49.0852 9.94031 49.0852C10.7688 49.0852 11.1829 49.6214 11.1829 50.5744V53.7316H12.544ZM30.9451 48.013H28.9336V46.2856H27.6911V48.013H26.5669V49.1446H27.6908V51.7659C27.6908 53.0766 28.2234 53.8507 29.6436 53.8507C30.1762 53.8507 30.7675 53.6722 31.1821 53.4339L30.8268 52.3615C30.4719 52.5998 30.0579 52.6595 29.7619 52.6595C29.1703 52.6595 28.9336 52.3021 28.9336 51.7062V49.1446H30.9451V48.013ZM41.4774 47.8936C40.7674 47.8936 40.2941 48.2513 39.9982 48.7278V48.013H38.7556V53.7316H39.9982V50.515C39.9982 49.562 40.4122 49.0258 41.1814 49.0258C41.4181 49.0258 41.714 49.0855 41.9507 49.1449L42.3056 47.9536C42.069 47.8939 41.714 47.8939 41.4774 47.8939V47.8936ZM25.561 48.4895C24.9691 48.0725 24.1408 47.8939 23.2533 47.8939C21.8334 47.8939 20.8868 48.6087 20.8868 49.7405C20.8868 50.6938 21.5967 51.2297 22.8393 51.4085L23.4309 51.4682C24.0818 51.5871 24.4368 51.7659 24.4368 52.0639C24.4368 52.4807 23.9635 52.7786 23.1349 52.7786C22.3067 52.7786 21.6558 52.4807 21.2415 52.183L20.6499 53.136C21.3008 53.6125 22.1884 53.8507 23.0756 53.8507C24.7325 53.8507 25.6793 53.0766 25.6793 52.0042C25.6793 50.9915 24.9101 50.4553 23.7266 50.2767L23.1349 50.217C22.6024 50.1573 22.1883 50.0385 22.1883 49.6811C22.1883 49.264 22.6024 49.0258 23.2533 49.0258C23.9635 49.0258 24.6734 49.3234 25.0284 49.5023L25.561 48.4895ZM58.5772 47.8939C57.867 47.8939 57.3937 48.2513 57.0978 48.7278V48.013H55.8552V53.7316H57.0978V50.515C57.0978 49.562 57.512 49.0258 58.281 49.0258C58.5179 49.0258 58.8139 49.0855 59.0505 49.1449L59.4055 47.9536C59.1688 47.8939 58.8139 47.8939 58.5772 47.8939ZM42.7199 50.8723C42.7199 52.5998 43.9031 53.8507 45.7376 53.8507C46.5658 53.8507 47.1575 53.6722 47.7491 53.1957L47.1575 52.183C46.6842 52.5404 46.2109 52.7189 45.6783 52.7189C44.6724 52.7189 43.9624 52.0042 43.9624 50.8723C43.9624 49.8002 44.6724 49.0852 45.6783 49.0258C46.2109 49.0258 46.6842 49.2043 47.1575 49.562L47.7491 48.5492C47.1575 48.0725 46.5658 47.8939 45.7376 47.8939C43.9031 47.8939 42.7199 49.1449 42.7199 50.8723ZM54.1987 50.8723V48.013H52.9562V48.7278C52.5419 48.1919 51.9503 47.8939 51.181 47.8939C49.5835 47.8939 48.341 49.1449 48.341 50.8723C48.341 52.5998 49.5835 53.8507 51.181 53.8507C52.0093 53.8507 52.6012 53.5531 52.9562 53.0169V53.7316H54.1987V50.8723ZM49.6425 50.8723C49.6425 49.8596 50.2935 49.0258 51.3584 49.0258C52.3643 49.0258 53.0745 49.8002 53.0745 50.8723C53.0745 51.885 52.3643 52.7189 51.3584 52.7189C50.2935 52.6592 49.6425 51.885 49.6425 50.8723ZM34.7914 47.8939C33.1346 47.8939 31.951 49.0852 31.951 50.8723C31.951 52.6595 33.1343 53.8507 34.8504 53.8507C35.6787 53.8507 36.5072 53.6125 37.1581 53.0766L36.5662 52.183C36.0929 52.5404 35.5013 52.7786 34.9097 52.7786C34.1404 52.7786 33.3712 52.4212 33.1936 51.4083H37.3948V50.932C37.4541 49.0852 36.3891 47.8939 34.7914 47.8939ZM34.7914 48.9661C35.5603 48.9661 36.0932 49.4428 36.2113 50.3364H33.2529C33.3712 49.562 33.9038 48.9661 34.7914 48.9661ZM65.6182 50.8723V45.7494H64.3757V48.7278C63.9614 48.1919 63.3698 47.8939 62.6005 47.8939C61.003 47.8939 59.7605 49.1449 59.7605 50.8723C59.7605 52.5998 61.003 53.8507 62.6005 53.8507C63.4291 53.8507 64.0207 53.5531 64.3757 53.0169V53.7316H65.6182V50.8723ZM61.0623 50.8723C61.0623 49.8596 61.713 49.0258 62.7781 49.0258C63.784 49.0258 64.494 49.8002 64.494 50.8723C64.494 51.885 63.784 52.7189 62.7781 52.7189C61.713 52.6592 61.0623 51.885 61.0623 50.8723ZM19.5257 50.8723V48.013H18.2831V48.7278C17.8688 48.1919 17.2772 47.8939 16.508 47.8939C14.9105 47.8939 13.6679 49.1449 13.6679 50.8723C13.6679 52.5998 14.9105 53.8507 16.508 53.8507C17.3365 53.8507 17.9281 53.5531 18.2831 53.0169V53.7316H19.5257V50.8723ZM14.9105 50.8723C14.9105 49.8596 15.5614 49.0258 16.6263 49.0258C17.6322 49.0258 18.3424 49.8002 18.3424 50.8723C18.3424 51.885 17.6322 52.7189 16.6263 52.7189C15.5614 52.6592 14.9105 51.885 14.9105 50.8723Z" fill="#E6E6E6"/>
<path d="M25.1467 4.58679H43.7848V38.3031H25.1467V4.58679Z" fill="#E6E6E6"/>
<path d="M26.3302 21.4451C26.3302 14.5947 29.5253 8.51843 34.4361 4.58674C30.8271 1.72746 26.2712 0 21.3011 0C9.52604 0 0 9.59056 0 21.4451C0 33.2993 9.52604 42.8901 21.3008 42.8901C26.2709 42.8901 30.8268 41.1627 34.4361 38.3031C29.5253 34.4311 26.3302 28.2955 26.3302 21.4451Z" fill="#E6E6E6" stroke="#404040"/>
<path d="M68.9315 21.4451C68.9315 33.2993 59.4054 42.8901 47.6307 42.8901C42.6605 42.8901 38.1047 41.1627 34.4954 38.3031C39.4655 34.3717 42.6015 28.2955 42.6015 21.4451C42.6015 14.5947 39.4062 8.51843 34.4954 4.58674C38.1044 1.72746 42.6605 0 47.6307 0C59.4054 0 68.9315 9.65026 68.9315 21.4451Z" fill="#E6E6E6" stroke="#404040"/>
</g>
<defs>
<clipPath id="clip0_6_50">
<rect width="69" height="54" fill="white"/>
</clipPath>
</defs>
</svg>
