<svg width="111" height="44" viewBox="0 0 111 44" fill="none" xmlns="http://www.w3.org/2000/svg">
<path fill-rule="evenodd" clip-rule="evenodd" d="M35.0169 0.137157C34.2327 0.424166 33.5744 1.32965 33.5789 2.11542C33.5833 2.90792 34.1884 3.85591 34.8787 4.15191C36.2627 4.74556 37.8015 3.71387 37.8015 2.1923C37.8015 0.628011 36.4339 -0.381344 35.0169 0.137157ZM26.3049 0.50603C25.7942 0.785448 25.3374 1.53176 25.3402 2.08181C25.3433 2.67111 25.659 3.35909 26.0612 3.65315C26.4776 3.9575 27.3276 4.06723 27.7901 3.87629C28.89 3.42241 29.2603 1.8462 28.4736 0.966957C27.927 0.356183 26.956 0.149736 26.3049 0.50603ZM17.6802 1.05088C17.2725 1.23336 17.0795 1.57003 17.0626 2.12822C17.0441 2.7443 17.2448 3.05528 17.8232 3.3065C18.9438 3.79313 19.9446 2.31591 19.1291 1.37887C18.9016 1.11756 18.7286 1.03169 18.3634 0.998832C18.1037 0.975412 17.7964 0.998833 17.6802 1.05088ZM30.5564 6.62775C30.091 6.80904 29.6552 7.22758 29.3647 7.77232C29.0601 8.3433 29.1025 9.09069 29.4751 9.71719C29.7642 10.2032 29.9045 10.3257 30.5081 10.6183C31.2502 10.9782 32.3383 10.7521 32.859 10.13C33.5737 9.276 33.5207 7.73252 32.7529 7.03956C32.1593 6.50393 31.2919 6.34129 30.5564 6.62775ZM39.1412 6.64109C38.6072 6.83659 38.3607 7.07968 38.0419 7.72505C37.8257 8.16266 37.7883 8.35913 37.8384 8.79327C37.9768 9.99368 38.7756 10.7469 39.9239 10.7602C41.1671 10.7744 42.0264 9.90575 42.0264 8.63497C42.0264 7.10625 40.5872 6.11164 39.1412 6.64109ZM21.5121 7.06298C20.9523 7.35303 20.6909 7.84876 20.6907 8.62033C20.6902 9.81163 21.2392 10.3923 22.3816 10.4088C23.3678 10.4233 23.8262 10.0623 24.0838 9.06857C24.2357 8.48295 24.1149 7.90189 23.7397 7.41223C23.2967 6.83398 22.2659 6.67243 21.5121 7.06298ZM13.2968 7.59786C12.9346 7.78273 12.6441 8.41974 12.7273 8.84662C12.7634 9.03193 12.9224 9.33238 13.0807 9.51432C13.3296 9.80068 13.4404 9.84524 13.9023 9.84524C14.3458 9.84524 14.4919 9.79189 14.7643 9.53069C15.0406 9.26569 15.0924 9.13634 15.0924 8.71033C15.0924 8.43221 15.0435 8.11072 14.9836 7.99601C14.7382 7.52521 13.8497 7.31551 13.2968 7.59786ZM6.96709 8.17925C6.69965 8.52828 6.69025 8.77376 6.93297 9.07388C7.4088 9.66221 8.26911 9.36545 8.26911 8.61296C8.26911 7.89625 7.40458 7.60827 6.96709 8.17925ZM62.0421 10.8279C60.1609 11.0186 58.4172 11.5589 57.3937 12.2683C56.1882 13.1037 55.0759 14.6376 54.7084 15.9714C54.4226 17.0082 53.3864 22.736 52.0699 30.555C51.6632 32.9702 51.0672 36.499 50.7454 38.3967C50.1478 41.9199 50.1355 42.1494 50.5348 42.3066C50.916 42.4567 51.7418 42.3756 51.944 42.1681C52.1452 41.9616 52.1908 41.7939 52.6406 39.6087C53.1171 37.2933 53.8573 33.857 53.9661 33.455C54.1587 32.7432 54.3831 32.6736 55.9984 32.8248C58.1386 33.0248 62.7247 33.1002 63.7968 32.9528C66.0161 32.6478 67.1267 32.1265 68.4324 30.7771C69.7544 29.4106 70.156 28.5146 70.9128 25.242C71.7109 21.7912 72.4031 17.043 72.3038 15.7003C72.1222 13.2448 70.7098 11.6554 68.2211 11.1065C66.5592 10.7399 64.0333 10.6259 62.0421 10.8279ZM101.704 10.8201C98.7505 11.012 97.081 11.5325 95.5547 12.7371C94.3111 13.7186 93.5651 15.0305 92.88 17.4403C91.8794 20.9602 91.4178 23.9234 91.411 26.8684C91.4066 28.7918 91.4272 29.04 91.6391 29.6168C92.349 31.5489 93.6318 32.4701 96.2816 32.9508C97.6895 33.2061 99.8591 33.2388 104.792 33.0786C108.021 32.9738 107.906 33.0206 108.008 31.7703C108.069 31.0238 108.062 30.9917 107.819 30.9038C107.68 30.8536 105.713 30.7983 103.449 30.7809C101.185 30.7635 98.6799 30.7135 97.8828 30.6698C96.5458 30.5964 96.3801 30.5632 95.7453 30.2424C94.1796 29.4512 93.6573 27.8957 94.0362 25.1523C94.1294 24.4768 94.2541 23.8315 94.3132 23.7181C94.5647 23.2357 94.5193 23.2388 102.362 23.1819L109.832 23.1276L110.093 22.8566C110.293 22.6475 110.391 22.3598 110.518 21.5986C111.016 18.6164 111.133 16.2057 110.846 14.8152C110.453 12.9144 109.397 11.7365 107.614 11.2131C106.451 10.8714 103.714 10.6895 101.704 10.8201ZM80.1149 11.257C78.996 11.3895 77.6966 11.7354 76.9879 12.0893C76.1512 12.507 75.3011 13.4243 74.8446 14.4017C74.2132 15.7535 73.9776 16.8432 73.9776 18.411C73.9776 19.6444 74.0023 19.8205 74.2523 20.3677C74.6282 21.1904 75.0701 21.6753 75.8156 22.0831C76.9702 22.7149 77.7722 22.8507 81.0411 22.9679C84.3098 23.0853 85.1368 23.1841 85.9131 23.5507C87.0014 24.0648 87.4393 24.8137 87.441 26.1636C87.4433 28.0655 86.7313 29.3794 85.3085 30.0984C84.3714 30.572 83.7212 30.6393 79.3116 30.7195C77.1912 30.7581 74.7972 30.824 73.9917 30.8658C72.6489 30.9355 72.5112 30.9621 72.3355 31.1849C72.0753 31.5148 71.946 32.5829 72.1423 32.7808C72.263 32.9026 73.1284 32.9111 77.2519 32.8313C85.033 32.6805 86.4496 32.4172 88.0164 30.8306C88.6984 30.1398 89.1517 29.4076 89.5629 28.3322C89.7852 27.7508 89.8123 27.5029 89.8164 26.001L89.8211 24.3204L89.4305 23.5001C88.7533 22.0783 87.6156 21.2317 85.7794 20.783C85.0164 20.5966 84.3268 20.5429 81.7937 20.4728C78.4359 20.3798 78.0201 20.3103 77.2073 19.7058C76.4236 19.1231 76.1057 17.9733 76.3543 16.621C76.604 15.2623 77.6255 14.1354 79.0391 13.6591C80.1224 13.294 82.5772 13.1821 86.3884 13.324C89.8035 13.4513 90.1394 13.4149 90.5296 12.8748C90.6408 12.721 90.7569 12.3302 90.7904 11.9975L90.8507 11.3976L89.755 11.3253C87.885 11.2018 80.9931 11.1529 80.1149 11.257ZM66.3199 13.3603C68.072 13.7057 69.1202 14.3851 69.5637 15.4629C69.7819 15.993 69.7811 17.3092 69.5618 18.6821C69.4665 19.2785 69.2672 20.5396 69.1188 21.4845C68.3352 26.4741 67.8206 28.2181 66.8308 29.238C65.6339 30.4715 63.7801 30.8473 59.7712 30.6689C57.5364 30.5695 56.9901 30.4553 56.1586 29.9138C55.5572 29.5223 55.2269 28.9154 55.154 28.0689C55.0834 27.2492 55.3948 23.9951 55.7133 22.224C56.3136 18.8852 57.2705 16.0626 58.1904 14.9168C58.8338 14.1158 60.1574 13.424 61.4612 13.2076C62.3305 13.0633 65.2842 13.1561 66.3199 13.3603ZM105.982 13.4299C106.504 13.4928 107.156 13.6177 107.429 13.7077C107.969 13.8853 108.52 14.4313 108.635 14.9022C108.812 15.6253 108.326 20.2459 108.034 20.6158L107.849 20.8507H101.535C97.4434 20.8507 95.1449 20.8116 95.0036 20.7397C94.6753 20.5728 94.6859 20.1646 95.0507 18.9324C96.2544 14.8666 97.1548 13.7356 99.4329 13.428C100.39 13.2987 104.901 13.3 105.982 13.4299ZM26.0244 13.5291C24.8823 13.799 24.228 14.6903 24.3015 15.8759C24.3365 16.4387 24.4007 16.6316 24.6644 16.9661C25.2857 17.7542 26.2673 18.0621 27.066 17.7196C27.2575 17.6374 27.6559 17.3499 27.9513 17.0805C28.2468 16.8111 28.6707 16.5257 28.8936 16.4462C29.4903 16.2335 35.4932 16.2348 35.9851 16.4477C36.1905 16.5368 36.6013 16.9377 36.9847 17.4236C37.3426 17.8772 37.661 18.2728 37.6923 18.3026C37.7236 18.3324 37.963 18.6485 38.2243 19.0049C38.8311 19.8329 38.9326 19.9646 39.4123 20.5462C39.6301 20.8103 39.8083 21.0714 39.8083 21.1265C39.8083 21.2393 29.69 21.3182 26.9223 21.2269C25.0127 21.164 24.8084 21.1058 24.05 20.4081C23.2841 19.7035 22.2449 19.6814 21.4298 20.3524C20.8732 20.8108 20.68 21.2253 20.6765 21.969C20.6712 23.0951 21.2575 23.8931 22.2849 24.1583C23.0372 24.3523 23.5709 24.157 24.2799 23.4283C24.6003 23.0989 25.0155 22.7624 25.2025 22.6804C25.4804 22.5585 26.9257 22.5315 33.1243 22.5324C38.3591 22.533 41.021 22.4933 41.7232 22.4041C42.6245 22.2896 42.794 22.296 43.2132 22.4604C43.545 22.5905 43.7437 22.7552 43.8782 23.0115C44.0606 23.3593 44.0612 23.4009 43.8898 23.8613C43.7909 24.1276 43.4909 24.6325 43.2235 24.9835C42.9559 25.3344 42.5362 25.9408 42.2907 26.3311C41.4875 27.6081 40.7367 28.0797 39.5038 28.0814C38.5581 28.0827 37.9781 27.8636 37.0675 27.1608C36.2509 26.5308 35.7078 26.3555 35.0938 26.5242C34.5078 26.6851 34.0559 27.0202 33.7546 27.5173C33.4099 28.0864 33.4249 29.2832 33.7835 29.821C34.3139 30.6165 35.3691 31.0413 36.1543 30.7752C36.3608 30.7052 36.7566 30.4132 37.0336 30.1263C37.8417 29.2896 37.9876 29.2442 39.6173 29.322C40.9715 29.3866 41.0442 29.3789 41.6039 29.1123C41.9235 28.9601 42.3559 28.6491 42.5649 28.4212C42.935 28.0176 43.5394 26.8933 43.9321 25.8774C44.0391 25.6007 44.3001 25.0959 44.5122 24.7557C45.6147 22.9864 47.1006 22.1972 48.9976 22.3735C50.4787 22.5112 51.1274 22.4768 51.2876 22.2518C51.4977 21.9567 51.4554 21.5883 51.1893 21.3962C50.9811 21.2459 50.4032 21.2259 46.5342 21.2352L42.117 21.2457L41.6227 20.994C41.2482 20.8032 40.9556 20.5062 40.4136 19.7664C40.0203 19.2297 39.5213 18.5763 39.3045 18.3145C39.0879 18.0527 38.842 17.7355 38.7582 17.6098C38.6745 17.4839 38.5794 17.3566 38.547 17.3268C38.5146 17.2969 38.3223 17.053 38.1198 16.7846C37.197 15.5618 37.0414 15.4004 36.6054 15.2134C36.2913 15.0786 35.5942 15.0493 32.6557 15.0474C28.6512 15.0447 28.6053 15.037 27.8729 14.2406C27.2933 13.6103 26.6797 13.3741 26.0244 13.5291ZM17.4875 14.0145C17.2653 14.0958 17.0688 14.1791 17.0508 14.1995C17.0328 14.2199 16.8937 14.4263 16.7418 14.6584C16.2425 15.4204 16.4112 16.6299 17.0862 17.1279C18.8426 18.4238 20.9504 16.1975 19.566 14.5086C19.0672 13.9001 18.2988 13.7174 17.4875 14.0145ZM9.12466 14.5522C8.43135 14.8644 8.14479 15.6637 8.48437 16.3379C8.68432 16.7347 9.00668 16.893 9.61497 16.893C10.7313 16.893 11.1511 15.277 10.1809 14.7142C9.69355 14.4314 9.4692 14.397 9.12466 14.5522ZM2.54673 15.1102C2.24159 15.3295 2.23176 15.8964 2.5273 16.222C2.82178 16.5465 3.40366 16.5446 3.62621 16.2183C4.15612 15.4418 3.30311 14.5662 2.54673 15.1102ZM12.8997 20.5469C12.3819 20.8914 12.1877 21.2996 12.1877 22.0434C12.1877 22.8012 12.3795 23.188 12.9336 23.5479C13.3534 23.8205 13.4866 23.8523 14.0388 23.8113C14.5399 23.774 14.747 23.6982 15.0644 23.4358C15.9887 22.6717 15.9016 21.201 14.8903 20.5015C14.3621 20.136 13.4868 20.156 12.8997 20.5469ZM6.67134 21.0704C6.32595 21.425 6.30292 21.49 6.35468 21.9615C6.45386 22.8648 7.32071 23.3444 8.15165 22.9558C8.69773 22.7003 8.8962 21.948 8.59147 21.2887C8.39797 20.8701 8.05871 20.688 7.47197 20.688C7.12288 20.688 6.97511 20.7586 6.67134 21.0704ZM0.152668 21.5796C-0.2449 22.1622 0.181292 22.8452 0.886013 22.755C1.42881 22.6856 1.67735 21.8929 1.27376 21.518C0.984771 21.2496 0.354198 21.2842 0.152668 21.5796ZM17.6802 26.8713C17.2056 27.0189 16.684 27.5669 16.5051 28.1058C16.3634 28.5329 16.3637 28.6446 16.5078 29.1426C16.7456 29.9651 17.3937 30.4465 18.263 30.4465C19.0245 30.4465 19.6105 29.9827 19.895 29.1549C20.078 28.6222 20.0026 28.1567 19.6332 27.5396C19.3071 26.9948 18.3433 26.6651 17.6802 26.8713ZM26.711 26.8863C25.8721 27.1335 25.3366 27.8125 25.3396 28.6249C25.3461 30.3585 27.6549 31.1259 28.5812 29.7025C29.4997 28.2909 28.2632 26.4288 26.711 26.8863ZM8.9677 27.5951C7.88643 28.1675 8.29995 29.9054 9.51705 29.9039C10.3525 29.903 10.8845 29.1481 10.658 28.2847C10.4647 27.5477 9.66978 27.2234 8.9677 27.5951ZM2.84005 27.9293C2.32038 28.0988 2.12508 28.8298 2.50512 29.1828C2.79411 29.4513 3.42468 29.4167 3.62621 29.1212C3.80334 28.8617 3.83988 28.417 3.70236 28.1947C3.59801 28.0258 3.05584 27.8589 2.84005 27.9293ZM39.0162 33.2193C38.1997 33.6552 37.7752 34.4179 37.848 35.3179C37.9024 35.9898 38.1389 36.4352 38.6788 36.8832C39.021 37.1672 39.1877 37.223 39.7982 37.2585C40.303 37.2878 40.6083 37.2508 40.8286 37.1339C41.2586 36.9057 41.8152 36.3022 41.8152 36.0642C41.8152 35.9563 41.8627 35.8679 41.9208 35.8679C41.9795 35.8679 42.0264 35.5773 42.0264 35.213C42.0264 34.2362 41.6201 33.5453 40.8332 33.1843C40.4217 32.9956 39.3983 33.0153 39.0162 33.2193ZM30.4497 33.5232C29.5148 33.9577 29.2706 35.6302 30.0217 36.4536C30.5311 37.012 31.6882 37.0856 32.3741 36.6031C33.264 35.9771 33.2713 34.3311 32.3871 33.6598C32.0167 33.3785 30.9263 33.3016 30.4497 33.5232ZM22.222 34.0129C21.7768 34.2121 21.5883 34.5605 21.5883 35.184C21.5883 35.7007 21.6269 35.8124 21.8846 36.04C22.524 36.6045 23.7377 36.2474 23.8933 35.4489C23.9715 35.0469 23.8076 34.4338 23.5604 34.2041C23.334 33.9939 22.5236 33.8781 22.222 34.0129ZM13.4802 34.3165C13.2837 34.3691 12.9799 34.8769 12.9799 35.1526C12.9799 35.7233 13.5982 36.1745 14.1762 36.0256C14.8589 35.8497 15.0441 34.9664 14.5127 34.4209C14.3474 34.2513 13.895 34.2055 13.4802 34.3165ZM7.17897 34.4871C6.7889 34.6914 6.6743 35.1722 6.93096 35.5268C7.39 36.1607 8.42923 35.8095 8.28981 35.0676C8.22094 34.7015 7.88527 34.3489 7.6078 34.3516C7.51263 34.3524 7.31966 34.4134 7.17897 34.4871ZM34.6328 39.9181C33.4194 40.5541 33.0877 42.182 33.9587 43.2266C34.4085 43.766 34.8988 44 35.5797 44C37.4311 44 38.3533 41.5856 36.9923 40.3016C36.277 39.6267 35.4463 39.4917 34.6328 39.9181ZM26.1255 40.2925C25.4761 40.7114 25.1876 41.6212 25.4444 42.4413C25.6088 42.9668 25.8123 43.2083 26.3107 43.4694C26.895 43.7756 27.5246 43.7369 28.1045 43.3594C28.5016 43.1009 28.6213 42.9437 28.7695 42.4856C29.0441 41.6367 28.8536 40.8643 28.257 40.4081C27.7949 40.0547 26.5951 39.9897 26.1255 40.2925ZM17.5341 40.8156C17.0359 41.1738 16.8815 42.1063 17.2388 42.5999C17.5292 43.0012 18.2508 43.1465 18.8301 42.9204C19.5922 42.623 19.5936 41.1747 18.8321 40.8038C18.3908 40.5889 17.8425 40.5937 17.5341 40.8156Z" fill="#E6E6E6"/>
</svg>
