<svg width="32" height="31" viewBox="0 0 32 31" fill="none" xmlns="http://www.w3.org/2000/svg">
<path d="M4.91675 11.25C4.91675 8.31048 6.08445 5.49139 8.16298 3.41286C10.2415 1.33433 13.0606 0.166626 16.0001 0.166626C18.9396 0.166626 21.7587 1.33433 23.8372 3.41286C25.9157 5.49139 27.0834 8.31048 27.0834 11.25V12.8887C29.7687 13.2735 31.8334 15.5835 31.8334 18.375V18.7708C31.8334 21.5812 29.4093 24.0449 26.5577 23.9135C25.3861 27.2701 22.4062 29.5327 19.1905 30.1059C18.4463 30.3782 17.566 30.25 16.7917 30.25C16.1619 30.25 15.5578 29.9997 15.1124 29.5543C14.667 29.1089 14.4167 28.5048 14.4167 27.875C14.4167 27.2451 14.667 26.641 15.1124 26.1956C15.5578 25.7502 16.1619 25.5 16.7917 25.5C18.0473 25.5 19.4375 25.3179 20.2862 26.4642C22.3382 25.4873 23.9167 23.4242 23.9167 20.75V11.25C23.9167 9.15033 23.0827 7.13669 21.598 5.65203C20.1133 4.16737 18.0997 3.33329 16.0001 3.33329C13.9005 3.33329 11.8868 4.16737 10.4022 5.65203C8.91749 7.13669 8.08341 9.15033 8.08341 11.25V21.1458C8.08341 21.8807 7.79149 22.5854 7.27186 23.1051C6.75222 23.6247 6.04745 23.9166 5.31258 23.9166C3.94782 23.9166 2.63896 23.3745 1.67393 22.4094C0.708897 21.4444 0.166748 20.1356 0.166748 18.7708V18.375C0.166406 17.0421 0.646434 15.7538 1.51884 14.7462C2.39125 13.7386 3.59759 13.0791 4.91675 12.8887V11.25Z" fill="#B49A87"/>
</svg>
