<svg width="31" height="37" viewBox="0 0 31 37" fill="none" xmlns="http://www.w3.org/2000/svg">
<g clip-path="url(#clip0_19_8)">
<path d="M24.2389 16.1875C24.8713 16.3802 25.4734 16.6417 26.0452 16.9721C26.6171 17.3025 27.2158 17.8049 27.8415 18.4794C28.4671 19.1538 29.002 19.9488 29.446 20.8641C29.89 21.7795 30.26 22.9633 30.556 24.4155C30.852 25.8677 31 27.4953 31 29.2985C31 31.4183 30.3273 33.2319 28.9818 34.7391C27.6363 36.2464 26.015 37 24.1178 37H6.88216C4.98503 37 3.36372 36.2464 2.01823 34.7391C0.672743 33.2319 0 31.4183 0 29.2985C0 27.4953 0.148003 25.8677 0.44401 24.4155C0.740017 22.9633 1.11003 21.7795 1.55404 20.8641C1.99805 19.9488 2.53288 19.1538 3.15853 18.4794C3.78418 17.8049 4.38292 17.3025 4.95475 16.9721C5.52658 16.6417 6.12869 16.3802 6.76107 16.1875C5.69813 14.4669 5.16667 12.5949 5.16667 10.5714C5.16667 9.13988 5.43913 7.77372 5.98405 6.47294C6.52897 5.17215 7.26562 4.04687 8.19401 3.0971C9.1224 2.14732 10.2223 1.39369 11.4938 0.836216C12.7653 0.278739 14.1007 0 15.5 0C16.8993 0 18.2347 0.278739 19.5062 0.836216C20.7777 1.39369 21.8776 2.14732 22.806 3.0971C23.7344 4.04687 24.471 5.17215 25.0159 6.47294C25.5609 7.77372 25.8333 9.13988 25.8333 10.5714C25.8333 12.5949 25.3019 14.4669 24.2389 16.1875ZM15.5 2.64286C13.3607 2.64286 11.5342 3.41713 10.0205 4.96568C8.50684 6.51423 7.75 8.38281 7.75 10.5714C7.75 12.76 8.50684 14.6286 10.0205 16.1772C11.5342 17.7257 13.3607 18.5 15.5 18.5C17.6393 18.5 19.4658 17.7257 20.9795 16.1772C22.4932 14.6286 23.25 12.76 23.25 10.5714C23.25 8.38281 22.4932 6.51423 20.9795 4.96568C19.4658 3.41713 17.6393 2.64286 15.5 2.64286ZM24.1178 34.3571C25.3019 34.3571 26.3143 33.865 27.1553 32.8809C27.9962 31.8967 28.4167 30.7026 28.4167 29.2985C28.4167 26.0087 27.8886 23.4141 26.8324 21.5145C25.7761 19.615 24.2591 18.617 22.2812 18.5206C20.3303 20.2688 18.0699 21.1429 15.5 21.1429C12.9301 21.1429 10.6697 20.2688 8.71875 18.5206C6.74089 18.617 5.22385 19.615 4.16764 21.5145C3.11144 23.4141 2.58333 26.0087 2.58333 29.2985C2.58333 30.7026 3.0038 31.8967 3.84473 32.8809C4.68566 33.865 5.69813 34.3571 6.88216 34.3571H24.1178Z" fill="black"/>
</g>
<defs>
<clipPath id="clip0_19_8">
<rect width="31" height="37" fill="white"/>
</clipPath>
</defs>
</svg>
