<svg width="60" height="54" viewBox="0 0 60 54" fill="none" xmlns="http://www.w3.org/2000/svg">
<path d="M48.9688 24.3949C48.9688 24.3949 49.7604 28.3184 49.9375 29.141H46.4583C46.8021 28.2023 48.125 24.5531 48.125 24.5531C48.1042 24.5848 48.4687 23.5934 48.6771 22.9816L48.9688 24.3949ZM60 8.4375V45.5625C60 48.3574 57.7604 50.625 55 50.625H5C2.23958 50.625 0 48.3574 0 45.5625V8.4375C0 5.64258 2.23958 3.375 5 3.375H55C57.7604 3.375 60 5.64258 60 8.4375ZM15.8854 34.9313L22.4688 18.5625H18.0417L13.9479 29.7422L13.5 27.4746L12.0417 19.9441C11.8021 18.9 11.0625 18.6047 10.1458 18.5625H3.40625L3.33333 18.8895C4.97917 19.3113 6.44792 19.923 7.72917 20.693L11.4583 34.9313H15.8854ZM25.7187 34.9523L28.3438 18.5625H24.1562L21.5417 34.9523H25.7187ZM40.2917 29.5945C40.3125 27.7277 39.1875 26.3039 36.7812 25.1332C35.3125 24.3844 34.4167 23.8781 34.4167 23.1082C34.4375 22.4121 35.1771 21.6949 36.8229 21.6949C38.1875 21.6633 39.1875 21.9902 39.9375 22.3172L40.3125 22.4965L40.8854 18.9527C40.0625 18.6258 38.75 18.2566 37.1354 18.2566C33 18.2566 30.0938 20.4926 30.0729 23.6777C30.0417 26.0297 32.1562 27.3375 33.7396 28.1285C35.3542 28.9301 35.9062 29.4574 35.9062 30.1641C35.8854 31.2609 34.5938 31.7672 33.3958 31.7672C31.7292 31.7672 30.8333 31.5035 29.4687 30.8918L28.9167 30.6281L28.3333 34.309C29.3125 34.7625 31.125 35.1633 33 35.1844C37.3958 35.1949 40.2604 32.9906 40.2917 29.5945ZM55 34.9523L51.625 18.5625H48.3854C47.3854 18.5625 46.625 18.8578 46.1979 19.923L39.9792 34.9523H44.375C44.375 34.9523 45.0938 32.9273 45.25 32.4949H50.625C50.75 33.075 51.125 34.9523 51.125 34.9523H55Z" fill="#E6E6E6"/>
</svg>
