<svg width="32" height="32" viewBox="0 0 32 32" fill="none" xmlns="http://www.w3.org/2000/svg">
<path d="M27.1625 4.77422C25.7109 3.30794 23.9819 2.14536 22.0763 1.3543C20.1707 0.563241 18.1266 0.159532 16.0633 0.16672C7.41835 0.16672 0.372517 7.21255 0.372517 15.8576C0.372517 18.6284 1.10085 21.3201 2.46252 23.6951L0.24585 31.8334L8.55835 29.6484C10.8542 30.8992 13.435 31.5642 16.0633 31.5642C24.7083 31.5642 31.7542 24.5184 31.7542 15.8734C31.7542 11.6776 30.1233 7.73505 27.1625 4.77422ZM16.0633 28.9042C13.72 28.9042 11.4242 28.2709 9.41335 27.0834L8.93835 26.7984L3.99835 28.0967L5.31252 23.2834L4.99585 22.7926C3.69395 20.7136 3.00265 18.3105 3.00085 15.8576C3.00085 8.66922 8.85918 2.81089 16.0475 2.81089C19.5308 2.81089 22.8083 4.17255 25.2625 6.64255C26.4777 7.85216 27.4407 9.29093 28.0957 10.8755C28.7507 12.46 29.0847 14.1588 29.0783 15.8734C29.11 23.0617 23.2517 28.9042 16.0633 28.9042ZM23.22 19.1509C22.8242 18.9609 20.8925 18.0109 20.5442 17.8684C20.18 17.7417 19.9267 17.6784 19.6575 18.0584C19.3883 18.4542 18.6442 19.3409 18.4225 19.5942C18.2008 19.8634 17.9633 19.8951 17.5675 19.6892C17.1717 19.4992 15.905 19.0717 14.4167 17.7417C13.245 16.6967 12.4692 15.4142 12.2317 15.0184C12.01 14.6226 12.2 14.4167 12.4058 14.2109C12.58 14.0367 12.8017 13.7517 12.9917 13.5301C13.1817 13.3084 13.2608 13.1342 13.3875 12.8809C13.5142 12.6117 13.4508 12.3901 13.3558 12.2001C13.2608 12.0101 12.4692 10.0784 12.1525 9.28672C11.8358 8.52672 11.5033 8.62172 11.2658 8.60589H10.5058C10.2367 8.60589 9.82502 8.70089 9.46085 9.09672C9.11252 9.49255 8.09918 10.4426 8.09918 12.3742C8.09918 14.3059 9.50835 16.1742 9.69835 16.4276C9.88835 16.6967 12.4692 20.6551 16.3958 22.3492C17.33 22.7609 18.0583 22.9984 18.6283 23.1726C19.5625 23.4734 20.4175 23.4259 21.0983 23.3309C21.8583 23.2201 23.4258 22.3809 23.7425 21.4626C24.075 20.5442 24.075 19.7684 23.9642 19.5942C23.8533 19.4201 23.6158 19.3409 23.22 19.1509Z" fill="#B49A87"/>
</svg>
